<svg xmlns="http://www.w3.org/2000/svg" viewBox="0 0 64 64">
  <rect width="64" height="64" fill="#2d3748"/>
  <defs>
    <linearGradient id="wingGradient" x1="0%" y1="0%" x2="100%" y2="100%">
      <stop offset="0%" style="stop-color:#38bdf8"/>
      <stop offset="50%" style="stop-color:#0ea5e9"/>
      <stop offset="100%" style="stop-color:#0284c7"/>
    </linearGradient>
    <linearGradient id="wingGradient2" x1="0%" y1="100%" x2="100%" y2="0%">
      <stop offset="0%" style="stop-color:#22d3ee"/>
      <stop offset="100%" style="stop-color:#06b6d4"/>
    </linearGradient>
  </defs>
  <!-- Left upper wing -->
  <path d="M32 32 Q18 24, 10 14 Q6 22, 12 32 Q18 38, 32 36 Z" fill="url(#wingGradient)" opacity="0.95"/>
  <!-- Left lower wing -->
  <path d="M32 36 Q16 40, 8 50 Q14 54, 24 48 Q30 42, 32 38 Z" fill="url(#wingGradient2)" opacity="0.9"/>
  <!-- Right upper wing -->
  <path d="M32 32 Q46 24, 54 14 Q58 22, 52 32 Q46 38, 32 36 Z" fill="url(#wingGradient)" opacity="0.95"/>
  <!-- Right lower wing -->
  <path d="M32 36 Q48 40, 56 50 Q50 54, 40 48 Q34 42, 32 38 Z" fill="url(#wingGradient2)" opacity="0.9"/>
  <!-- Body -->
  <ellipse cx="32" cy="36" rx="2" ry="10" fill="#1e3a5f"/>
  <!-- Antennae -->
  <path d="M31 26 Q28 20, 26 16" stroke="#1e3a5f" stroke-width="1.2" fill="none" stroke-linecap="round"/>
  <path d="M33 26 Q36 20, 38 16" stroke="#1e3a5f" stroke-width="1.2" fill="none" stroke-linecap="round"/>
</svg>